<svg width="315" height="100" xmlns="http://www.w3.org/2000/svg" xmlns:xlink="http://www.w3.org/1999/xlink"><defs><path d="M0 100h100V0H0v100zM29.788 4.258h65.954v91.484H74.468V38.767l-35.701 35.7H70.21v21.275H4.258V4.258H25.53v56.975l35.701-35.7H29.788V4.257zm0 25.532H50.95L29.788 50.954V29.79zM70.21 49.046V70.21H49.046L70.21 49.046z" id="a"/></defs><g fill="none" fill-rule="evenodd"><path d="M161.756 25.89c4.165 3.624 6.283 8.696 6.356 15.219l.109 38.048h-13.908v-7.066c-2.028 2.538-4.635 4.457-7.821 5.762-3.189 1.304-6.845 1.957-10.974 1.957-4.057 0-7.624-.778-10.701-2.338-3.08-1.558-5.452-3.713-7.116-6.468-1.667-2.753-2.5-5.832-2.5-9.24 0-5.435 1.918-9.693 5.759-12.774 3.838-3.08 9.27-4.656 16.297-4.729h16.948V42.74c0-3.405-1.123-6.05-3.367-7.935-2.247-1.884-5.506-2.827-9.779-2.827-5.506 0-11.263 1.813-17.275 5.436l-5.106-9.785c4.563-2.535 8.709-4.365 12.44-5.49 3.73-1.122 8.094-1.684 13.092-1.684 7.532 0 13.38 1.813 17.546 5.436zm61.743 4.564l-32.036 37.288h32.906v11.415h-50.412v-9.349l31.942-37.179h-30.862V21.214H223.5v9.24zm87.37 4.186c2.571 4.457 3.858 9.585 3.858 15.382 0 5.871-1.287 11.054-3.857 15.547-2.572 4.494-6.157 7.972-10.757 10.436-4.6 2.465-9.905 3.696-15.916 3.696-6.084 0-11.445-1.231-16.08-3.696-4.636-2.464-8.24-5.942-10.81-10.436-2.571-4.493-3.856-9.676-3.856-15.547 0-5.797 1.285-10.925 3.855-15.382 2.571-4.457 6.175-7.917 10.811-10.382 4.635-2.463 9.996-3.696 16.08-3.696 6.011 0 11.316 1.233 15.916 3.696 4.6 2.465 8.185 5.925 10.757 10.382zm-79.136 44.517V.237h14.124v78.92h-14.124zM295.93 62.96c3.042-3.262 4.563-7.502 4.563-12.72 0-5.218-1.52-9.458-4.563-12.719-3.042-3.262-6.953-4.892-11.734-4.892-4.926 0-8.909 1.63-11.951 4.892-3.042 3.26-4.563 7.5-4.563 12.719 0 5.218 1.52 9.458 4.563 12.72 3.042 3.26 7.025 4.892 11.951 4.892 4.78 0 8.692-1.631 11.734-4.892zm-141.726-4.023V53.72h-14.667c-3.767 0-6.538.563-8.312 1.686-1.775 1.124-2.661 2.953-2.661 5.489 0 2.465.923 4.421 2.77 5.87 1.847 1.451 4.363 2.174 7.55 2.174 4.056 0 7.534-.959 10.43-2.88 2.897-1.92 4.527-4.294 4.89-7.12z" fill="#1E1E1F"/><use fill="#4F64FF" xlink:href="#a"/></g></svg>